<svg width="27" height="26" viewBox="0 0 27 26" fill="none" xmlns="http://www.w3.org/2000/svg">
<path fill-rule="evenodd" clip-rule="evenodd" d="M15.9413 16.8347C13.0738 19.109 8.87634 18.93 6.21818 16.2977C3.36607 13.4734 3.36607 8.89423 6.21818 6.06991C9.07029 3.24558 13.6945 3.24558 16.5466 6.06991C19.2047 8.70217 19.3855 12.8587 17.0889 15.6983L22.6671 21.2222C22.984 21.536 22.984 22.0448 22.6671 22.3586C22.3502 22.6724 21.8364 22.6724 21.5195 22.3586L15.9413 16.8347ZM7.36578 15.1613C5.14748 12.9646 5.14748 9.40303 7.36578 7.20633C9.58409 5.00963 13.1807 5.00963 15.399 7.20633C17.6157 9.40141 17.6173 12.9594 15.4039 15.1564C15.4022 15.158 15.4006 15.1596 15.399 15.1613C15.3973 15.1629 15.3957 15.1645 15.3941 15.1661C13.1754 17.358 9.58246 17.3564 7.36578 15.1613Z" fill="#D0A064"/>
</svg>
