<svg width="21" height="24" viewBox="0 0 21 24" fill="none" xmlns="http://www.w3.org/2000/svg">
<path d="M12.9999 7.00005C12.9999 6.44776 13.4477 6.00005 13.9999 6.00005C14.5522 6.00005 14.9999 6.44776 14.9999 7.00005C14.9999 7.55233 14.5522 8.00005 13.9999 8.00005C13.4477 8.00005 12.9999 7.55233 12.9999 7.00005Z" fill="#D0A064"/>
<path fill-rule="evenodd" clip-rule="evenodd" d="M8.99994 7.25005C6.37659 7.25005 4.24994 9.37669 4.24994 12C4.24994 14.6234 6.37659 16.75 8.99994 16.75C11.6233 16.75 13.7499 14.6234 13.7499 12C13.7499 9.37669 11.6233 7.25005 8.99994 7.25005ZM5.74994 12C5.74994 10.2051 7.20501 8.75005 8.99994 8.75005C10.7949 8.75005 12.2499 10.2051 12.2499 12C12.2499 13.795 10.7949 15.25 8.99994 15.25C7.20501 15.25 5.74994 13.795 5.74994 12Z" fill="#D0A064"/>
<path fill-rule="evenodd" clip-rule="evenodd" d="M14.2582 2.83306C10.7916 2.44562 7.20828 2.44562 3.74171 2.83306C1.72965 3.05794 0.105318 4.64295 -0.131235 6.66548C-0.545773 10.2098 -0.545773 13.7903 -0.131235 17.3346C0.105318 19.3571 1.72965 20.9422 3.74171 21.167C7.20828 21.5545 10.7916 21.5545 14.2582 21.167C16.2702 20.9422 17.8946 19.3571 18.1311 17.3346C18.5457 13.7903 18.5457 10.2098 18.1311 6.66548C17.8946 4.64295 16.2703 3.05794 14.2582 2.83306ZM3.90832 4.32378C7.26416 3.94871 10.7357 3.94871 14.0916 4.32378C15.4217 4.47244 16.4872 5.52205 16.6413 6.83973C17.0423 10.2683 17.0423 13.7318 16.6413 17.1604C16.4872 18.478 15.4217 19.5277 14.0916 19.6763C10.7357 20.0514 7.26417 20.0514 3.90832 19.6763C2.57821 19.5277 1.51272 18.478 1.35861 17.1604C0.957612 13.7318 0.957612 10.2683 1.35861 6.83973C1.51272 5.52205 2.57821 4.47244 3.90832 4.32378Z" fill="#D0A064"/>
</svg>
