<svg width="24" height="24" viewBox="0 0 24 24" fill="none" xmlns="http://www.w3.org/2000/svg">
<path fill-rule="evenodd" clip-rule="evenodd" d="M15.0214 3.3434C15.5298 3.25632 16.0991 3.22724 16.6349 3.31789C17.5917 3.47977 18.4756 3.9245 19.1742 4.59126C19.6309 4.60158 20.0797 4.51161 20.4769 4.38335C20.813 4.2748 21.0969 4.14373 21.2959 4.04009C21.3948 3.98856 21.4712 3.9446 21.5209 3.91484C21.5457 3.89998 21.5637 3.88874 21.5744 3.88195L21.5839 3.87589C21.8807 3.67816 22.276 3.71664 22.5288 3.96815C22.7818 4.21971 22.8225 4.61463 22.6263 4.91254C22.4185 5.22783 22.1302 5.7899 21.8071 6.41966C21.7563 6.51868 21.7047 6.61937 21.6523 6.72104C21.4671 7.08101 21.2771 7.44482 21.1 7.75695C20.9888 7.95294 20.8699 8.15191 20.75 8.32385V8.59763C20.7576 9.60326 20.6422 10.6036 20.4082 11.5769C20.2609 12.1892 20.0666 12.7908 19.8264 13.3762C19.2039 14.8928 18.2855 16.2703 17.1248 17.428C15.9641 18.5858 14.5843 19.5006 13.066 20.1192C11.5491 20.7372 9.92438 21.047 8.28653 21.0305C5.91222 21.0326 3.58785 20.3485 1.59313 19.0606C1.29933 18.8709 1.17563 18.5033 1.29497 18.1746C1.41431 17.8459 1.745 17.6433 2.09207 17.6862C2.39243 17.7234 2.69484 17.7415 2.99749 17.7405C4.08494 17.7375 5.15168 17.4972 6.12554 17.0446C5.816 16.9037 5.52046 16.7299 5.24431 16.5251C4.43259 15.9232 3.82868 15.0833 3.51661 14.1221C3.43552 13.8724 3.49096 13.5984 3.66277 13.3998C3.66585 13.3963 3.66896 13.3927 3.67209 13.3892C3.48856 13.2256 3.31683 13.0474 3.15874 12.8558C2.44742 11.9936 2.05574 10.9121 2.04996 9.7944L2.04994 9.79053L2.04995 9.74053C2.04995 9.47466 2.19071 9.22867 2.41991 9.09395C2.47801 9.05979 2.53959 9.03409 2.60294 9.01685C2.26461 8.34177 2.08867 7.59632 2.08995 6.84006C2.08955 5.98329 2.31335 5.14133 2.73911 4.39782C2.86202 4.18319 3.08285 4.04295 3.32938 4.02298C3.57591 4.003 3.81644 4.10585 3.9723 4.2979C4.93485 5.48391 6.13614 6.45417 7.49813 7.14564C8.19826 7.50109 8.93281 7.77879 9.68861 7.97522C10.1123 8.08535 10.5428 8.16994 10.9775 8.22836C10.9584 7.50511 11.1012 6.78224 11.4009 6.11431C11.8406 5.13448 12.5931 4.3283 13.5403 3.82221C13.9415 3.60788 14.474 3.43717 15.0214 3.3434ZM3.74323 10.8909C3.87287 11.2558 4.06574 11.5981 4.3158 11.9012C4.80712 12.4967 5.48907 12.9043 6.24628 13.0549C6.58357 13.122 6.83201 13.4099 6.84903 13.7534C6.86606 14.0969 6.64731 14.4079 6.31831 14.508C6.04581 14.591 5.76664 14.6487 5.48428 14.6808C5.67086 14.9213 5.89034 15.1368 6.13775 15.3202C6.69894 15.7364 7.37588 15.9672 8.07439 15.9807C8.39131 15.9868 8.67017 16.1914 8.771 16.492C8.87183 16.7925 8.77284 17.1239 8.52373 17.3199C7.47457 18.1455 6.26137 18.7211 4.97582 19.015C6.0413 19.3562 7.15875 19.5319 8.28904 19.5305L8.29774 19.5305C9.7378 19.5455 11.1664 19.2734 12.5001 18.73C13.8338 18.1867 15.0459 17.383 16.0655 16.366C17.0851 15.349 17.8919 14.139 18.4387 12.8067C18.6497 12.2925 18.8204 11.764 18.9497 11.2261C19.1556 10.3703 19.2569 9.49065 19.25 8.60639L19.25 8.60052V8.07053C19.25 7.88867 19.316 7.71301 19.4359 7.57624C19.5051 7.4972 19.6263 7.31464 19.7953 7.01674C19.956 6.73362 20.1338 6.39371 20.3187 6.03453C20.3299 6.0128 20.3411 5.99097 20.3523 5.96903C19.8728 6.07318 19.3292 6.12777 18.7594 6.06618C18.5789 6.04668 18.4116 5.96239 18.2886 5.82895C17.7857 5.28362 17.1161 4.92061 16.3847 4.79687C16.0601 4.74196 15.6678 4.75453 15.2747 4.82187C14.8475 4.89503 14.4758 5.02304 14.2472 5.14522C13.5929 5.49479 13.0732 6.05163 12.7695 6.72842C12.4658 7.4052 12.3953 8.16365 12.5691 8.88481C12.6245 9.11472 12.5682 9.3573 12.4172 9.53933C12.2663 9.72136 12.0383 9.82151 11.8021 9.80957C10.9586 9.76691 10.1242 9.63826 9.31129 9.42699C8.45139 9.2035 7.61566 8.88755 6.81909 8.48314C5.64631 7.88773 4.57826 7.11063 3.65342 6.18294C3.61123 6.39855 3.58981 6.61858 3.58995 6.84003L3.58995 6.84195C3.58891 7.39267 3.72406 7.9351 3.98337 8.42095C4.24268 8.9068 4.6181 9.32099 5.07621 9.62664C5.35423 9.81214 5.47596 10.1592 5.37471 10.4777C5.27345 10.7963 4.97366 11.0093 4.63955 11.0002C4.33696 10.992 4.0369 10.9552 3.74323 10.8909Z" fill="#D0A064"/>
</svg>
