<svg width="305" height="63" viewBox="0 0 305 63" fill="none" xmlns="http://www.w3.org/2000/svg">
<path d="M64.0781 25.0938C64.0781 27.2188 64.5521 28.2865 65.5 28.2969C65.6667 28.2969 65.9271 28.1406 66.2812 27.8281C66.875 27.3906 67.375 27.1562 67.7812 27.125C68.4479 27.125 68.8125 27.4427 68.875 28.0781C68.9062 28.5052 68.7083 28.8385 68.2812 29.0781C68.0625 29.1927 67.8333 29.25 67.5938 29.25C66.4062 29.25 65.5469 29.1615 65.0156 28.9844C63.7135 28.5573 62.8177 27.6823 62.3281 26.3594C62.1094 25.7448 62 25.0938 62 24.4062C62 22.4271 62.9271 21.1771 64.7812 20.6562C65.3542 20.4896 65.9792 20.4062 66.6562 20.4062H78.5C79.6458 20.4062 80.3854 20.1667 80.7188 19.6875C80.9375 19.3542 81.0469 18.8542 81.0469 18.1875H81.7031C82.1094 19.5521 82.1042 20.4531 81.6875 20.8906C81.2708 21.3177 80.5781 21.5625 79.6094 21.625H73.7031V35.7344C73.7031 36.6927 73.7708 37.3177 73.9062 37.6094C74.0417 37.8906 74.3594 38.0833 74.8594 38.1875L75.7656 38.3594V39H69.7031V38.3438L70.7812 38.1094C71.1667 38.026 71.4062 37.9062 71.5 37.75C71.5833 37.5729 71.625 37.1927 71.625 36.6094V21.625H66.4688C65.2604 21.625 64.5052 22.3438 64.2031 23.7812C64.1198 24.1875 64.0781 24.625 64.0781 25.0938ZM92.1719 27.5469C90.6719 27.5469 89.3646 27.9427 88.25 28.7344V35.7344C88.25 36.6927 88.3177 37.3177 88.4531 37.6094C88.599 37.8906 88.9167 38.0833 89.4062 38.1875L90.3125 38.3594V39H84.4062V38.3438L85.4844 38.1094C85.8698 38.026 86.1042 37.9062 86.1875 37.75C86.2708 37.5729 86.3125 37.1927 86.3125 36.6094V20.7969C86.3125 20.0885 86.2865 19.6667 86.2344 19.5312C86.099 19.1458 85.5156 18.9531 84.4844 18.9531L84.4062 18.4219L88.25 17.4531V27.5938C89.9896 26.625 91.5 26.1406 92.7812 26.1406C94.3854 26.1406 95.4635 26.8646 96.0156 28.3125C96.2656 29 96.3958 29.8229 96.4062 30.7812V35.7656C96.4062 36.724 96.474 37.349 96.6094 37.6406C96.7552 37.9219 97.0677 38.1094 97.5469 38.2031L98.4688 38.3906V39.0312H92.5625V38.3594L93.625 38.1406C94.0208 38.0573 94.2604 37.9323 94.3438 37.7656C94.4271 37.5885 94.4688 37.2083 94.4688 36.625V31.2812C94.4479 28.8125 93.6823 27.5677 92.1719 27.5469ZM105.797 26.0938C107.797 26.0938 109.052 26.875 109.562 28.4375C109.792 29.1458 109.854 29.8385 109.75 30.5156H102.266C102.13 31.2656 102.062 31.9635 102.062 32.6094C102.062 34.8073 102.719 36.3073 104.031 37.1094C104.729 37.5365 105.568 37.75 106.547 37.75C107.568 37.75 108.594 37.375 109.625 36.625L110.078 37.0938L109.641 37.6094C108.453 38.849 107.047 39.474 105.422 39.4844C104.453 39.4844 103.557 39.1927 102.734 38.6094C101.078 37.4323 100.25 35.651 100.25 33.2656C100.25 30.7448 100.953 28.8333 102.359 27.5312C103.422 26.6042 104.568 26.125 105.797 26.0938ZM102.422 29.5H107.734C107.734 28.6771 107.547 28.0677 107.172 27.6719C106.797 27.2656 106.318 27.0625 105.734 27.0625C104.828 27.0625 104.089 27.3333 103.516 27.875C102.943 28.4062 102.578 28.9479 102.422 29.5ZM122.344 44.3281C123.292 44.3281 123.766 43.2552 123.766 41.1094V25.3438C123.766 23.9271 123.656 22.901 123.438 22.2656C123.219 21.6198 122.76 21.2917 122.062 21.2812C121.75 21.2812 121.339 21.4844 120.828 21.8906C120.13 22.4531 119.526 22.7396 119.016 22.75C118.505 22.75 118.146 22.6146 117.938 22.3438C117.729 22.0625 117.625 21.7917 117.625 21.5312C117.625 20.7917 118.151 20.4167 119.203 20.4062H127.688V21.0938L126.625 21.3281C126.25 21.4115 126.026 21.5312 125.953 21.6875C125.891 21.8333 125.859 22.2135 125.859 22.8281V39.4062C125.859 42.4792 124.849 44.349 122.828 45.0156C122.297 45.1823 121.438 45.2656 120.25 45.2656C119.771 45.2656 119.432 45.125 119.234 44.8438C119.047 44.5625 118.964 44.3125 118.984 44.0938C119.026 43.4688 119.391 43.1562 120.078 43.1562C120.516 43.1562 120.964 43.3438 121.422 43.7188C121.891 44.1042 122.198 44.3073 122.344 44.3281ZM141.219 37.6719C141.198 37.724 141.12 37.849 140.984 38.0469C140.859 38.2448 140.693 38.4531 140.484 38.6719C140.286 38.8906 140.057 39.0833 139.797 39.25C139.536 39.4271 139.266 39.5156 138.984 39.5156C138.578 39.5156 138.25 39.4219 138 39.2344C137.75 39.0469 137.552 38.8125 137.406 38.5312C137.26 38.25 137.156 37.9531 137.094 37.6406C137.031 37.3177 136.99 37.0312 136.969 36.7812C136.896 36.8438 136.76 37.0208 136.562 37.3125C136.365 37.6042 136.099 37.9167 135.766 38.25C135.432 38.5729 135.021 38.8646 134.531 39.125C134.052 39.3854 133.495 39.5156 132.859 39.5156C132.547 39.5156 132.219 39.474 131.875 39.3906C131.542 39.3073 131.24 39.1667 130.969 38.9688C130.698 38.7604 130.474 38.4844 130.297 38.1406C130.12 37.7865 130.031 37.349 130.031 36.8281C130.031 36.0885 130.276 35.474 130.766 34.9844C131.255 34.4948 131.865 34.1094 132.594 33.8281C133.323 33.5469 133.99 33.3438 134.594 33.2188C135.208 33.0833 135.938 32.9323 136.781 32.7656V30.1562C136.781 29.9271 136.771 29.6406 136.75 29.2969C136.74 28.9427 136.677 28.6042 136.562 28.2812C136.458 27.9479 136.281 27.6667 136.031 27.4375C135.792 27.1979 135.443 27.0781 134.984 27.0781C134.422 27.0781 133.958 27.1875 133.594 27.4062C133.24 27.625 132.979 27.8229 132.812 28C132.646 28.1771 132.417 28.4375 132.125 28.7812C131.771 28.8229 131.49 28.8177 131.281 28.7656C131.083 28.7031 130.917 28.6146 130.781 28.5C130.656 28.375 130.594 28.2083 130.594 28C130.594 27.6979 130.823 27.4115 131.281 27.1406C131.74 26.8698 132.333 26.6302 133.062 26.4219C133.802 26.2031 134.5 26.0938 135.156 26.0938C135.75 26.0938 136.25 26.1823 136.656 26.3594C137.062 26.526 137.396 26.7604 137.656 27.0625C137.917 27.3542 138.115 27.6979 138.25 28.0938C138.385 28.4792 138.479 28.8906 138.531 29.3281C138.594 29.7656 138.625 30.2135 138.625 30.6719C138.635 31.1302 138.641 31.5729 138.641 32C138.641 32.7917 138.63 33.5625 138.609 34.3125C138.589 35.0625 138.594 35.7344 138.625 36.3281C138.656 36.9115 138.734 37.3854 138.859 37.75C138.995 38.1042 139.214 38.2812 139.516 38.2812C139.901 38.2812 140.292 37.9271 140.688 37.2188L141.219 37.6719ZM136.781 33.7969C135.938 33.9219 135.214 34.0625 134.609 34.2188C134.016 34.375 133.542 34.5729 133.188 34.8125C132.844 35.0521 132.578 35.3229 132.391 35.625C132.214 35.9167 132.125 36.276 132.125 36.7031C132.125 37.7448 132.583 38.2656 133.5 38.2656C133.833 38.2656 134.177 38.1458 134.531 37.9062C134.885 37.6667 135.214 37.3802 135.516 37.0469C135.818 36.7031 136.083 36.349 136.312 35.9844C136.542 35.6198 136.698 35.3177 136.781 35.0781V33.7969ZM150.422 27.5469C148.932 27.5469 147.625 27.9427 146.5 28.7344V35.7344C146.5 36.6927 146.568 37.3177 146.703 37.6094C146.839 37.8906 147.156 38.0833 147.656 38.1875L148.578 38.3594V39H142.656V38.3438L143.734 38.1094C144.12 38.026 144.359 37.9062 144.453 37.75C144.536 37.5729 144.578 37.1927 144.578 36.6094V29.5781C144.578 28.8281 144.51 28.3542 144.375 28.1562C144.125 27.875 143.578 27.7292 142.734 27.7188L142.656 27.1875L146.5 26.2188V27.5938C148.271 26.625 149.786 26.1406 151.047 26.1406C152.63 26.1406 153.698 26.849 154.25 28.2656C154.521 28.9531 154.656 29.7917 154.656 30.7812V35.7656C154.656 36.724 154.724 37.349 154.859 37.6406C155.005 37.9219 155.318 38.1094 155.797 38.2031L156.719 38.3906V39H150.812V38.3594L151.875 38.1406C152.271 38.0573 152.51 37.9323 152.594 37.7656C152.677 37.5885 152.719 37.2083 152.719 36.625V31.2812C152.698 28.8125 151.932 27.5677 150.422 27.5469ZM164.047 26.0938C166.047 26.0938 167.302 26.875 167.812 28.4375C168.042 29.1458 168.104 29.8385 168 30.5156H160.516C160.38 31.2656 160.312 31.9635 160.312 32.6094C160.312 34.8073 160.969 36.3073 162.281 37.1094C162.979 37.5365 163.818 37.75 164.797 37.75C165.818 37.75 166.844 37.375 167.875 36.625L168.328 37.0938L167.891 37.6094C166.703 38.849 165.297 39.474 163.672 39.4844C162.703 39.4844 161.807 39.1927 160.984 38.6094C159.328 37.4323 158.5 35.651 158.5 33.2656C158.5 30.7448 159.203 28.8333 160.609 27.5312C161.672 26.6042 162.818 26.125 164.047 26.0938ZM160.672 29.5H165.984C165.984 28.6771 165.797 28.0677 165.422 27.6719C165.047 27.2656 164.568 27.0625 163.984 27.0625C163.078 27.0625 162.339 27.3333 161.766 27.875C161.193 28.4062 160.828 28.9479 160.672 29.5ZM183.344 44.2969C184.292 44.2969 184.766 43.2292 184.766 41.0938V22.8281C184.766 22.1406 184.719 21.7344 184.625 21.6094C184.531 21.4948 184.323 21.401 184 21.3281L182.938 21.0938H179.578C178.599 21.0938 177.901 21.6198 177.484 22.6719C177.297 23.1406 177.203 23.6094 177.203 24.0781C177.203 26.2135 177.677 27.2812 178.625 27.2812C178.792 27.2812 179.057 27.125 179.422 26.8125C180.005 26.375 180.495 26.1406 180.891 26.1094C181.589 26.1094 181.958 26.4271 182 27.0625C182.031 27.4896 181.833 27.8229 181.406 28.0625C181.188 28.1771 180.958 28.2344 180.719 28.2344C179.521 28.2344 178.661 28.1458 178.141 27.9688C176.13 27.2917 175.12 25.9427 175.109 23.9219C175.109 22.5365 175.766 21.5365 177.078 20.9219C177.818 20.5781 178.651 20.4062 179.578 20.4062H189.016V21.0625L188.109 21.25C187.536 21.3646 187.188 21.5938 187.062 21.9375C186.938 22.2812 186.875 22.8646 186.875 23.6875V28.7812H198.094V23.6875C198.094 22.7396 198.016 22.1198 197.859 21.8281C197.703 21.5365 197.38 21.3438 196.891 21.25L195.969 21.0625V20.4062H202.031V21.0938L200.969 21.3281C200.594 21.4115 200.375 21.526 200.312 21.6719C200.24 21.8281 200.203 22.2135 200.203 22.8281V36.6094C200.203 37.276 200.25 37.6719 200.344 37.7969C200.448 37.9115 200.656 38.0052 200.969 38.0781L202.031 38.3125V39H195.969V38.3438L196.875 38.1562C197.438 38.0417 197.781 37.8125 197.906 37.4688C198.031 37.125 198.094 36.5417 198.094 35.7188V29.75H186.875V40.1719C186.75 41.9323 186.286 43.2135 185.484 44.0156C184.682 44.8281 183.396 45.2344 181.625 45.2344C180.979 45.2344 180.542 45.1198 180.312 44.8906C180.094 44.6719 179.984 44.3958 179.984 44.0625C180.026 43.4375 180.391 43.125 181.078 43.125C181.516 43.125 181.938 43.3125 182.344 43.6875C182.76 44.0729 183.094 44.276 183.344 44.2969ZM203.781 33.0156C203.781 31.1198 204.323 29.5156 205.406 28.2031C206.49 26.8802 207.807 26.2188 209.359 26.2188C210.932 26.2188 212.307 26.8333 213.484 28.0625C214.661 29.2917 215.25 30.8385 215.25 32.7031C215.25 34.5677 214.74 36.1198 213.719 37.3594C212.542 38.7865 211.188 39.5 209.656 39.5C208.021 39.5104 206.635 38.901 205.5 37.6719C204.365 36.4323 203.792 34.8802 203.781 33.0156ZM209.125 27.3906C208.021 27.3906 207.172 27.8906 206.578 28.8906C205.984 29.8906 205.688 31.1354 205.688 32.625C205.688 34.1042 206.062 35.4271 206.812 36.5938C207.573 37.75 208.573 38.3333 209.812 38.3438C210.969 38.3438 211.833 37.8385 212.406 36.8281C212.99 35.8073 213.281 34.6094 213.281 33.2344C213.281 31.7656 212.927 30.4271 212.219 29.2188C211.51 28.0104 210.479 27.401 209.125 27.3906ZM223.422 27.6406H220.172V33.8594C220.172 34.7552 220.182 35.599 220.203 36.3906C220.224 37.1719 220.344 37.7083 220.562 38C220.792 38.2812 221.12 38.4219 221.547 38.4219C222.307 38.4219 223.12 38.2135 223.984 37.7969V38.6406C222.88 39.224 221.938 39.5156 221.156 39.5156C220.417 39.5156 219.844 39.3906 219.438 39.1406C219.042 38.901 218.75 38.5885 218.562 38.2031C218.385 37.8073 218.281 37.3646 218.25 36.875C218.219 36.3854 218.203 35.8958 218.203 35.4062V28.7031C218.203 28.474 218.198 28.2969 218.188 28.1719C218.188 28.0469 218.167 27.9375 218.125 27.8438C218.094 27.75 218.01 27.6927 217.875 27.6719C217.74 27.651 217.536 27.6406 217.266 27.6406H216.391V26.9062C217.391 26.4792 218.078 26.0677 218.453 25.6719C218.828 25.276 219.229 24.5885 219.656 23.6094H220.172V26.4688H223.422V27.6406ZM230.953 26.0938C232.953 26.0938 234.208 26.875 234.719 28.4375C234.948 29.1458 235.01 29.8385 234.906 30.5156H227.422C227.286 31.2656 227.219 31.9635 227.219 32.6094C227.219 34.8073 227.875 36.3073 229.188 37.1094C229.885 37.5365 230.724 37.75 231.703 37.75C232.724 37.75 233.75 37.375 234.781 36.625L235.234 37.0938L234.797 37.6094C233.609 38.849 232.203 39.474 230.578 39.4844C229.609 39.4844 228.714 39.1927 227.891 38.6094C226.234 37.4323 225.406 35.651 225.406 33.2656C225.406 30.7448 226.109 28.8333 227.516 27.5312C228.578 26.6042 229.724 26.125 230.953 26.0938ZM227.578 29.5H232.891C232.891 28.6771 232.703 28.0677 232.328 27.6719C231.953 27.2656 231.474 27.0625 230.891 27.0625C229.984 27.0625 229.245 27.3333 228.672 27.875C228.099 28.4062 227.734 28.9479 227.578 29.5ZM240.984 17.4531V35.4531C240.984 36.3906 241.016 36.9688 241.078 37.1875C241.193 37.6042 241.5 37.9167 242 38.125C242.271 38.2292 242.62 38.3281 243.047 38.4219V39H237.156V38.4219C237.219 38.401 237.443 38.3542 237.828 38.2812C238.693 38.1042 239.125 37.4792 239.125 36.4062V20.6406C239.125 20.0052 239.083 19.6094 239 19.4531C238.823 19.1198 238.26 18.9531 237.312 18.9531L237.234 18.4531L240.984 17.4531Z" fill="white"/>
<circle cx="254" cy="31" r="3" fill="#AD6D47"/>
<circle cx="278" cy="31" r="3" fill="#AD6D47"/>
<circle cx="302" cy="31" r="3" fill="#AD6D47"/>
<circle cx="3" cy="31" r="3" fill="#AD6D47"/>
<circle cx="27" cy="31" r="3" fill="#AD6D47"/>
<circle cx="51" cy="31" r="3" fill="#AD6D47"/>
</svg>
